<?xml version="1.0" encoding="utf-8"?>
<!-- Generator: Adobe Illustrator 21.0.0, SVG Export Plug-In . SVG Version: 6.00 Build 0)  -->
<svg version="1.1" id="Layer_1" xmlns="http://www.w3.org/2000/svg" xmlns:xlink="http://www.w3.org/1999/xlink" x="0px" y="0px"
   viewBox="0 0 148.8 36" style="enable-background:new 0 0 148.8 36;" xml:space="preserve">
<style type="text/css">
	.st0{fill:#231F20;}
	.st1{fill:#0099D8;}
</style>
<title>PBC-logo-blue</title>
<g id="Layer_2">
	<g id="Layer_1-2">
		<polygon class="st0" points="103,18 103,0 103.8,0 103.8,18 103,18 		"/>
		<path class="st1" d="M6.3,28.9c0-0.4-0.3-0.6-0.9-0.6H4.9v1.2h0.6C6,29.5,6.3,29.3,6.3,28.9z"/>
		<path class="st1" d="M5.4,30.4H4.9v1.2h0.6c0.7,0,1-0.2,1-0.6S6.1,30.4,5.4,30.4z"/>
		<path class="st1" d="M0,24v12h131.8V24H0z M5.8,32.6H3.5v-5.2h1.9c1.5,0,2.3,0.4,2.3,1.3c0,0.6-0.4,1-1.1,1.2
			c0.8,0.1,1.3,0.5,1.3,1.3C7.8,32.1,7.2,32.6,5.8,32.6L5.8,32.6z M12.7,32.6H8.9v-5.2h1.4v4.2h2.3L12.7,32.6z M18.2,30.6
			c0,1.3-0.9,2-2.5,2s-2.4-0.7-2.4-2.1v-3.1h1.4v3.1c0,0.8,0.3,1.1,1,1.1c0.7,0,1-0.4,1-1.1v-3.1h1.4L18.2,30.6z M23.3,32.6h-3.9
			v-5.2h3.8v1h-2.4v1h2.3v1h-2.3v1.1h2.5V32.6z M32,31c0,1-0.9,1.7-2.4,1.7c-1.3,0.1-2.4-0.8-2.5-2.1c0-0.2,0-0.3,0-0.5
			c0-1.8,0.9-2.8,2.6-2.8c1.4,0,2.2,0.6,2.3,1.7h-1.5c0-0.4-0.4-0.7-0.8-0.7c0,0,0,0-0.1,0c-0.7,0-1.1,0.6-1.1,1.7s0.4,1.6,1.1,1.6
			c0.4,0.1,0.8-0.2,0.9-0.7c0,0,0,0,0-0.1L32,31L32,31z M36,32.6c-0.1-0.7-0.1-1.1-0.2-1.5s-0.3-0.5-0.7-0.5h-0.6v2h-1.4v-5.2h2.3
			c1.3,0,1.9,0.5,1.9,1.3c0,0.7-0.5,1.2-1.2,1.3c0,0,0,0-0.1,0l0,0c0.5,0,0.9,0.3,1,0.8c0.1,0.4,0.1,1,0.3,1.8L36,32.6z M41.1,32.7
			c-1.3,0.2-2.5-0.8-2.7-2.1c0-0.2,0-0.4,0-0.6c-0.1-1.3,0.8-2.5,2.2-2.7c0.2,0,0.3,0,0.5,0c1.3-0.1,2.5,0.8,2.6,2.2
			c0,0.2,0,0.3,0,0.5c0.1,1.3-0.8,2.5-2.2,2.7C41.3,32.7,41.2,32.7,41.1,32.7L41.1,32.7z M46.8,32.7c-1.4,0-2.2-0.6-2.2-1.8H46l0,0
			c0,0.4,0.3,0.7,0.6,0.8c0,0,0.1,0,0.1,0c0.6,0,0.8-0.2,0.8-0.6s-0.4-0.5-1.2-0.7c-1.2-0.3-1.7-0.6-1.7-1.6s0.8-1.5,2.2-1.5
			s2.1,0.5,2.1,1.5v0.1h-1.5l0,0c0-0.3-0.2-0.6-0.5-0.6c0,0-0.1,0-0.1,0c-0.4,0-0.7,0.2-0.7,0.5c0,0.5,0.6,0.5,1.6,0.8
			s1.4,0.7,1.4,1.5C49.1,32.1,48.3,32.7,46.8,32.7L46.8,32.7z M52.2,32.7c-1.5,0-2.2-0.7-2.2-1.8h1.4l0,0c0,0.4,0.3,0.7,0.6,0.8
			c0,0,0.1,0,0.1,0c0.6,0,0.8-0.2,0.8-0.6s-0.4-0.5-1.2-0.7c-1.2-0.3-1.7-0.6-1.7-1.6s0.8-1.5,2.2-1.5s2.1,0.5,2.1,1.5v0.1h-1.4l0,0
			c0-0.3-0.2-0.6-0.5-0.6c0,0-0.1,0-0.1,0c-0.4,0-0.7,0.2-0.7,0.5c0,0.5,0.6,0.5,1.6,0.8s1.4,0.7,1.4,1.5
			C54.5,32.1,53.7,32.7,52.2,32.7L52.2,32.7z"/>
		<path class="st1" d="M41,28.4c-0.8,0-1.2,0.5-1.2,1.6s0.4,1.6,1.2,1.6s1.2-0.5,1.2-1.6S41.8,28.4,41,28.4z"/>
		<path class="st1" d="M35.1,28.4h-0.6v1.3h0.6c0.6,0,0.9-0.2,0.9-0.6S35.7,28.4,35.1,28.4z"/>
		<path class="st0" d="M50.5,10.9l1-2.2c0.8-1.8,1.7-4,2.5-5.7c0.1-0.2,0.3-0.3,0.5-0.3h3c0.1,0,0.2,0.1,0.2,0.2
			c0,0.1-0.1,0.2-0.2,0.2c-0.7,0.1-0.9,0.4-0.8,1.5l1,9.4c0.1,1.1,0.3,1.4,0.9,1.5c0.1,0,0.2,0.1,0.2,0.2c0,0.1-0.1,0.2-0.2,0.2
			c0,0,0,0,0,0c-0.4,0-1.4-0.1-2.1-0.1s-1.7,0.1-2.1,0.1c-0.1,0-0.2-0.1-0.2-0.2c0,0,0,0,0,0c0-0.1,0.1-0.2,0.2-0.2
			c0.6-0.1,0.7-0.4,0.7-1.5l-0.8-8l-0.1,0.2c-1.2,2.5-2.8,6.2-4.4,9.6c-0.1,0.3-0.4,0.3-0.6,0c-1.8-4-3.5-7.4-4.5-9.6l-0.1-0.2v0.2
			c-0.3,2.1-0.8,5.9-0.8,7.8c0,1,0.3,1.3,0.9,1.5c0.1,0,0.2,0.1,0.2,0.2c0,0.1-0.1,0.2-0.2,0.2c0,0,0,0,0,0c-0.6,0-1.1-0.1-1.7-0.1
			s-1.1,0.1-1.6,0.1c-0.1,0-0.2-0.1-0.2-0.2c0,0,0,0,0,0c0-0.1,0.1-0.2,0.2-0.2c0.6-0.1,0.9-0.6,1-1.5c0.3-1.8,0.9-6.5,1.1-9.3
			c0.1-1-0.3-1.4-1-1.5c-0.1,0-0.2-0.1-0.2-0.2c0-0.1,0.1-0.2,0.3-0.2h3.4c0.1,0,0.2,0,0.2,0.1c0,0,0,0.1,0,0.1L46.2,3l2.5,5.7
			l1,2.2l0.3,0.6l0.1,0.2L50.5,10.9L50.5,10.9z"/>
		<path class="st0" d="M21.8,3.6c-0.6,0-1.2,0-1.8,0.1v10.2c0,1,0.3,1.3,0.9,1.5c0.1,0,0.2,0.1,0.2,0.2c0,0.1,0,0.2-0.2,0.2
			c-0.4,0-1.4-0.1-2.1-0.1s-1.7,0.1-2.1,0.1c-0.1,0-0.2-0.1-0.2-0.2c0,0,0,0,0,0c0-0.1,0.1-0.2,0.2-0.2c0.6-0.1,0.8-0.4,0.8-1.5V4.6
			c0-1-0.3-1.3-0.9-1.5c-0.1,0-0.2-0.2-0.2-0.3c0-0.1,0.1-0.2,0.2-0.2c0,0,0,0,0,0c1.5,0.1,5.3-0.1,6.7-0.1c2.1,0,4,1.3,4,3.4
			C27,7.5,26,8.8,24.5,9.3h-0.1c1,0.8,1.8,1.9,2.4,3.1l1,1.8c0.4,0.7,0.8,1.4,1,1.6c0.5,0.9,1.4,1.5,2.5,1.6c0.1,0,0.1,0,0.1,0.1
			c0,0,0,0.1,0,0.1c0,0.1,0,0.2-0.1,0.2c0,0,0,0,0,0h-1.2c-1.5,0.1-3-0.6-3.9-1.9c-0.4-0.5-0.8-1.1-1.1-1.6
			c-0.4-0.6-0.8-1.5-1.3-2.3c-0.4-0.8-0.9-1.5-1.5-2.1c-0.5-0.3-1-0.5-1.6-0.6h-0.1L20.9,9c1.8,0,3.6-0.6,3.6-2.7
			c0.1-1.4-0.9-2.6-2.3-2.7C22,3.6,21.9,3.6,21.8,3.6z"/>
		<path class="st0" d="M12.3,5.2c0.2-2-1.4-3.8-3.4-4c-0.2,0-0.4,0-0.6,0c-0.7,0-1.4,0.1-2.1,0.2v14.4c0,1.2,0.3,1.6,1,1.7
			c0.1,0,0.2,0.1,0.2,0.3c0,0.1,0,0.2-0.2,0.2c-0.5,0-1.5-0.2-2.3-0.2S3,18,2.5,18c-0.1,0-0.2-0.1-0.2-0.2c0,0,0,0,0,0
			c0-0.1,0.1-0.2,0.2-0.3c0.7-0.1,0.9-0.5,0.9-1.7V2.3c0-1.2-0.2-1.5-1-1.7C2.4,0.5,2.3,0.4,2.3,0.3c0-0.1,0.1-0.2,0.2-0.1
			c1.8,0.1,5.3-0.1,6.9-0.1c2.8,0,5.7,1.4,5.7,5s-3.3,5.4-6.1,5.4c-0.8,0-1.6-0.1-2.3-0.3L7,9.5c0.4,0.1,0.8,0.1,1.2,0.1
			C9.7,9.6,12.3,8.8,12.3,5.2L12.3,5.2z"/>
		<path class="st0" d="M86.6,15.4c0.1,0,0.1,0,0.1,0.1c0,0,0,0.1,0,0.1c0,0.1,0,0.2-0.1,0.2c0,0,0,0,0,0h-2.2
			c-0.7,0.1-1.4-0.2-1.8-0.7c0-0.1-0.2-0.3-0.4-0.5l-0.6-0.8c-0.4-0.6-1-1.3-1.3-1.8s-0.5-0.6-0.7-0.9c-0.2-0.3-0.5-0.5-0.7-0.8
			c-0.2-0.2-0.4-0.3-0.6-0.4c-0.4-0.2-0.8-0.3-1.2-0.4h-0.1L77.3,9c1.8,0,3.6-0.7,3.6-2.8c0.1-1.3-0.9-2.5-2.2-2.6
			c-0.2,0-0.3,0-0.5,0c-0.6,0-1.2,0-1.8,0.1l-0.1,10.2c0,1,0.3,1.3,0.9,1.5c0.1,0,0.2,0.1,0.2,0.2c0,0.1,0,0.2-0.2,0.2
			c-0.4,0-1.5-0.1-2.1-0.1s-1.6,0.1-2,0.1c-0.1,0-0.2-0.1-0.2-0.2c0,0,0,0,0,0c0-0.1,0.1-0.2,0.2-0.2c0.6-0.1,0.8-0.4,0.8-1.5V4.6
			c0-1-0.3-1.3-0.9-1.5c-0.1,0-0.2-0.2-0.2-0.3c0-0.1,0.1-0.2,0.2-0.2c0,0,0,0,0,0c1.5,0.1,5-0.1,6.4-0.1c2.1,0,4.1,1.3,4.1,3.4
			c0,1.5-1,2.8-2.9,3.3l-0.2,0.1l0.2,0.1c0.4,0.2,0.8,0.4,1.1,0.7c0.2,0.2,0.4,0.4,0.5,0.6c0.2,0.2,0.3,0.4,0.4,0.6
			c0.5,0.6,1,1.5,1.4,2C85.2,14.8,85.9,15.3,86.6,15.4L86.6,15.4z"/>
		<path class="st0" d="M88.2,11.3l-1.9,4.1l-1.3-0.6c1.9-4.2,4.5-10.1,5.7-12.4c0.1-0.2,0.4-0.2,0.5-0.1c0,0,0.1,0.1,0.1,0.1
			c1.2,2.4,5.7,11.5,5.7,11.5c0.4,0.9,0.7,1.4,1.4,1.5c0.1,0,0.2,0.1,0.2,0.2c0,0.1,0,0.1-0.2,0.1c-0.4,0-1.5-0.1-2.2-0.1
			s-1.7,0.1-2.1,0.1c-0.1,0-0.2-0.1-0.2-0.2c0-0.1,0-0.2,0.2-0.2c0.7-0.2,0.6-0.5,0.2-1.4c-0.1-0.2-0.4-0.9-0.8-1.5l-0.5-0.9
			l-0.2-0.3L88.2,11.3L88.2,11.3z M92.6,10.2c0,0-1.5-3.3-1.8-4.1l0-0.1l-2,4.2L92.6,10.2z"/>
		<path class="st0" d="M69.1,8.3l-0.6,1.1h-4.3v4.3c0,0.8,0.1,1,0.9,1.1c1.2,0.1,2.4,0.1,3.5,0c0.8-0.2,1.4-0.8,1.7-1.6
			c0.1-0.1,0.2-0.1,0.4-0.1c0,0,0.1,0.1,0.1,0.1c0,0.1,0,0.1,0,0.2c-0.1,0.6-0.4,1.8-0.5,2.1s-0.3,0.4-0.7,0.4c-1.4,0-4.3-0.1-6-0.1
			c-0.8,0-2.4,0-2.8,0c-0.1,0-0.2-0.1-0.2-0.2c0,0,0,0,0,0c0-0.1,0.1-0.2,0.2-0.2c0.6-0.1,0.8-0.4,0.8-1.5V4.5c0-1-0.2-1.3-0.8-1.5
			c-0.1,0-0.2-0.1-0.2-0.2c0-0.1,0.1-0.2,0.2-0.2c0,0,0,0,0,0h8.8c0.3,0,0.6,0.2,0.6,0.5c0,0,0,0,0,0l0.2,1.5c0,0.1-0.1,0.2-0.2,0.3
			S70,4.8,70,4.7c-0.1-0.3-0.3-0.5-0.6-0.7C69.2,3.8,69,3.7,68,3.7h-3.8v4.6H69.1z"/>
		<path class="st0" d="M38.2,8.3l-0.6,1.1h-4.3v4.3c0,0.8,0.1,1,0.9,1.1c1.2,0.1,2.4,0.1,3.5,0c0.8-0.2,1.4-0.8,1.7-1.6
			c0.1-0.1,0.2-0.2,0.4-0.1c0,0,0.1,0.1,0.1,0.1c0,0.1,0,0.1,0,0.2c-0.1,0.6-0.4,1.8-0.5,2.1s-0.3,0.4-0.7,0.4c-1.4,0-4.3-0.1-6-0.1
			c-0.8,0-2.4,0-2.8,0c-0.1,0-0.2-0.1-0.2-0.2c0,0,0,0,0,0c0-0.1,0.1-0.2,0.2-0.2c0.6-0.1,0.8-0.4,0.8-1.5V4.5c0-1-0.2-1.3-0.8-1.5
			c-0.1,0-0.2-0.1-0.2-0.2c0-0.1,0.1-0.2,0.2-0.2c0,0,0,0,0.1,0h8.8c0.3,0,0.6,0.2,0.6,0.5c0,0,0,0,0,0l0.2,1.5
			c0,0.1-0.1,0.2-0.2,0.3s-0.3-0.1-0.3-0.2C39,4.4,38.8,4.2,38.5,4c-0.3-0.2-0.4-0.3-1.4-0.3h-3.8v4.5H38.2z"/>
		<path class="st1" d="M128.3,5v8h-5v5h-7.9v-5h-5V5h5V0h7.9v5H128.3z M118.9,5.8c-0.2-0.3-0.2-0.7,0-0.9c0.3-0.2,0.7-0.2,0.9,0
			c0.1,0.1,0.2,0.3,0.2,0.4c0,0.2-0.1,0.3-0.2,0.4c-0.2,0.3-0.2,0.7,0,0.9c0.1,0.1,0.3,0.2,0.4,0.2h3.6c-1.2-2.5-4.1-3.5-6.6-2.3
			c-1,0.5-1.8,1.3-2.3,2.3h3.5c0.4,0,0.6-0.3,0.6-0.6C119.1,6.1,119,5.9,118.9,5.8L118.9,5.8z M118.6,8.5c0.2-0.3,0-0.7-0.3-0.8
			c-0.1,0-0.2-0.1-0.3-0.1l-3.3-0.4c-0.7,2-0.1,4.2,1.6,5.6L118.6,8.5L118.6,8.5L118.6,8.5z M119.6,9.5c-0.1-0.1-0.1-0.1-0.2-0.1
			c-0.1,0-0.2,0-0.2,0.1l-2.4,3.6c1.6,1.1,3.7,1.1,5.3,0L119.6,9.5L119.6,9.5z M124,7.3l-3.3,0.4c-0.3,0-0.6,0.2-0.6,0.6
			c0,0,0,0,0,0c0,0.1,0,0.2,0.1,0.3l2.3,4.3C124.1,11.6,124.7,9.3,124,7.3z M118.3,6.1c0,0.2,0,0.2-0.1,0.2h-2.1
			c0.6-0.7,1.3-1.2,2.2-1.4C118,5.2,118.1,5.7,118.3,6.1L118.3,6.1z M122.7,6.3h-2.2c-0.1,0-0.1-0.1-0.1-0.1
			c0.2-0.2,0.2-0.5,0.2-0.8c0-0.2,0-0.4-0.1-0.5C121.4,5.1,122.1,5.6,122.7,6.3z M118,8.4l-1.8,3.4c-0.7-0.8-1.1-1.8-1.1-2.8
			c0-0.3,0-0.7,0.1-1l2.7,0.3C117.9,8.3,118,8.3,118,8.4L118,8.4L118,8.4L118,8.4z M119.5,10.4l1.7,2.5c-1.1,0.5-2.5,0.5-3.6,0
			l1.7-2.5c0,0,0.1-0.1,0.1-0.1C119.4,10.3,119.5,10.3,119.5,10.4L119.5,10.4z M120.8,8.4c0-0.1,0.1-0.1,0.1-0.1l0,0l2.6-0.2
			c0.3,1.4,0,2.8-0.9,3.9L120.8,8.4L120.8,8.4L120.8,8.4z"/>
		<path class="st1" d="M125.5,17.8c0.6,0,1-0.4,1-1s-0.4-1-1-1s-1,0.4-1,1S124.9,17.8,125.5,17.8z M124.3,16.8
			c0-0.7,0.5-1.2,1.2-1.2c0.7,0,1.2,0.5,1.2,1.2c0,0.6-0.5,1.2-1.2,1.2C124.8,18,124.3,17.5,124.3,16.8
			C124.3,16.8,124.3,16.8,124.3,16.8z"/>
		<path class="st1" d="M125.5,16.7c0.2,0,0.3,0,0.3-0.2s-0.2-0.2-0.3-0.2h-0.3v0.4L125.5,16.7z M125.2,17.5H125v-1.4h0.5
			c0.3,0,0.5,0.1,0.5,0.4c0,0.2-0.1,0.4-0.3,0.4c0,0,0,0,0,0l0.4,0.6h-0.2l-0.4-0.6h-0.2L125.2,17.5L125.2,17.5z"/>
	</g>
</g>
</svg>
